# AST/ASF file generated using VICON BodyLanguage
# -----------------------------------------------
:version 1.10
:name VICON
:units
  mass 1.0
  length 0.45
  angle deg
:documentation
   .ast/.asf automatically generated from VICON data using
   VICON BodyBuilder and BodyLanguage model FoxedUp or BRILLIANT.MOD
:root
   order TX TY TZ RX RY RZ
   axis XYZ
   position 0 0 0  
   orientation 0 0 0 
:bonedata
  begin
     id 1 
     name lhipjoint
     direction 0.588788 -0.725889 0.355548 
     length 2.37778 
     axis 0 0 0  XYZ
  end
  begin
     id 2 
     name lfemur
     direction 0.34202 -0.939693 0  
     length 6.86393  
     axis 0 0 20  XYZ
    dof rx ry rz
    limits (-160.0 20.0)
           (-70.0 70.0)
           (-60.0 70.0)
  end
  begin
     id 3 
     name ltibia
     direction 0.34202 -0.939693 0   
     length 7.32851   
     axis 0 0 20   XYZ
    dof rx
    limits (-10.0 170.0)
  end
  begin
     id 4 
     name lfoot
     direction 0.0626533 -0.172138 0.983078   
     length 1.98929   
     axis -90 7.62852e-016 20   XYZ
    dof rx rz
    limits (-45.0 90.0)
           (-70.0 20.0)
  end
  begin
     id 5 
     name ltoes
     direction 1.53647e-011 -4.21734e-011 1   
     length 1.00479   
     axis -90 7.62852e-016 20   XYZ
    dof rx
    limits (-90.0 20.0)
  end
  begin
     id 6 
     name rhipjoint
     direction -0.59141 -0.724168 0.354705   
     length 2.38343  
     axis 0 0 0  XYZ 
  end
  begin
     id 7 
     name rfemur
     direction -0.34202 -0.939693 0   
     length 6.95589   
     axis 0 0 -20   XYZ
    dof rx ry rz
    limits (-160.0 20.0)
           (-70.0 70.0)
           (-70.0 60.0)
  end
  begin
     id 8 
     name rtibia
     direction -0.34202 -0.939693 0   
     length 7.32327   
     axis 0 0 -20   XYZ
    dof rx
    limits (-10.0 170.0)
 end
 begin
     id 9 
     name rfoot
     direction -0.0660461 -0.18146 0.981178   
     length 1.85272  
     axis -90 -7.62852e-016 -20   XYZ
    dof rx rz
    limits (-45.0 90.0)
           (-20.0 70.0)
  end
  begin
     id 10 
     name rtoes
     direction -1.53586e-011 -4.21988e-011 1   
     length 0.93746   
     axis -90 -7.62852e-016 -20   XYZ
    dof rx
    limits (-90.0 20.0)
  end
  begin
     id 11 
     name lowerback
     direction -0.0107982 0.991059 0.13299   
     length 1.98691   
     axis 0 0 0   XYZ
    dof rx ry rz
    limits (-20.0 45.0)
           (-30.0 30.0)
           (-30.0 30.0)
  end
  begin
     id 12 
     name upperback
     direction 0.0076296 0.999916 0.0104576   
     length 1.99501   
     axis 0 0 0   XYZ
    dof rx ry rz
    limits (-20.0 45.0)
           (-30.0 30.0)
           (-30.0 30.0)
  end
  begin
     id 13 
     name thorax
     direction 0.01176 0.998615 -0.0512909   
     length 2.03144   
     axis 0 0 0   XYZ
    dof rx ry rz
    limits (-20.0 45.0)
           (-30.0 30.0)
           (-30.0 30.0)
  end
  begin
     id 14 
     name lowerneck
     direction -0.0171909 0.999644 0.0204011   
     length 1.71818   
     axis 0 0 0   XYZ
    dof rx ry rz
    limits (-20.0 45.0)
           (-30.0 30.0)
           (-30.0 30.0)
  end
  begin
     id 15 
     name upperneck
     direction 0.0250902 0.997482 -0.0663316   
     length 1.66199   
     axis 0 0 0   XYZ
    dof rx ry rz
    limits (-20.0 45.0)
           (-30.0 30.0)
           (-30.0 30.0)
  end
  begin
     id 16
     name head
     direction 0.00881535 0.99956 -0.0283365  
     length 1.81545  
     axis 0 0 0   XYZ
    dof rx ry rz
    limits (-20.0 45.0)
           (-30.0 30.0)
           (-30.0 30.0)
  end
  begin
     id 17 
     name lclavicle
     direction 0.840411 0.486876 -0.238035  
     length 3.30409  
     axis 0 0 0   XYZ
    dof ry rz
    limits (-20.0 10.0)
           (0.0 20.0)
  end
  begin
     id 18 
     name lhumerus
     direction 1 -4.48977e-011 -5.16239e-027   
     length 4.62672   
     axis 180 -30 -90   XYZ
    dof rx ry rz
    limits (-60.0 90.0)
           (-90.0 90.0)
           (-90.0 90.0)
  end
  begin
     id 19
     name lradius
     direction 1 -4.48977e-011 -8.71171e-027   
     length 3.11018   
     axis 180 -30 -90   XYZ
    dof rx
    limits (-10.0 170.0)
  end
  begin
     id 20
     name lwrist
     direction 1 -4.48912e-011 -1.03764e-026   
     length 1.55509   
     axis 9.09556e-015 90 90   XYZ
    dof ry
    limits (-180.0 0.0)
 end
  begin
     id 21 
     name lhand
     direction 1 -4.49072e-011 -2.07528e-026   
     length 0.743834   
     axis 1.3242e-014 90 90   XYZ
    dof rx rz
    limits (-90.0 90.0)
           (-45.0 45.0)
  end
  begin
     id 22 
     name lfingers
     direction 1 -4.48909e-011 -4.15056e-026   
     length 0.599698   
     axis 2.64841e-014 90 90   XYZ
    dof rx
    limits (0.0 90.0)
  end
  begin
     id 23
     name lthumb
     direction 0.707107 -6.35013e-011 0.707107   
     length 0.86105   
     axis -90 45 2.85299e-015   XYZ
    dof rx rz
    limits (-45.0 45.0)
           (-45.0 45.0)
  end
  begin
     id 24 
     name rclavicle
     direction -0.835208 0.500237 -0.228452   
     length 3.2716  
     axis 0 0 0   XYZ 
    dof ry rz
    limits (-10.0 20.0)
           (-20.0 0.0)
  end
  begin
     id 25 
     name rhumerus
     direction -1 -4.48978e-011 -5.1953e-028  
     length 4.55919   
     axis 180 30 90   XYZ
    dof rx ry rz
    limits (-90.0 60.0)
           (-90.0 90.0)
           (-90.0 90.0)
  end
  begin
     id 26 
     name rradius
     direction -1 -4.48961e-011 -5.99546e-027   
     length 3.22748   
     axis 180 30 90   XYZ
    dof rx
    limits (-10.0 170.0)
  end
  begin
     id 27 
     name rwrist
     direction -1 -4.48986e-011 -1.03764e-026   
     length 1.61374   
     axis 9.09556e-015 -90 -90   XYZ
    dof ry
    limits (-180.0 0.0)
  end
  begin
     id 28
     name rhand
     direction -1 -4.4899e-011 -2.07528e-026   
     length 0.700882   
     axis 1.3242e-014 -90 -90   XYZ
    dof rx rz
    limits (-90.0 90.0)
           (-45.0 45.0)
  end
  begin
     id 29
     name rfingers
     direction -1 -4.48991e-011 -4.15056e-026   
     length 0.565069   
     axis 2.64841e-014 -90 -90   XYZ
    dof rx
    limits (0.0 90.0)
  end
  begin
     id 30
     name rthumb
     direction -0.707107 -6.34804e-011 0.707107   
     length 0.811329   
     axis -90 -45 -2.85299e-015   XYZ
    dof rx rz
    limits (-45.0 45.0)
           (-45.0 45.0)
  end
:hierarchy
  begin
    root lhipjoint rhipjoint lowerback
    lhipjoint lfemur
    lfemur ltibia
    ltibia lfoot
    lfoot ltoes
    rhipjoint rfemur
    rfemur rtibia
    rtibia rfoot
    rfoot rtoes
    lowerback upperback
    upperback thorax
    thorax lowerneck lclavicle rclavicle
    lowerneck upperneck
    upperneck head
    lclavicle lhumerus
    lhumerus lradius
    lradius lwrist
    lwrist lhand lthumb
    lhand lfingers
    rclavicle rhumerus
    rhumerus rradius
    rradius rwrist
    rwrist rhand rthumb
    rhand rfingers
  end

#!OML:ASF F:\VICON\USERDATA\INSTALL\SteveWalk\SteveWalk.ASF
:FULLY-SPECIFIED
:DEGREES
238
root -0.437475 16.265 3.74793 16.0921 4.93154 -1.48809
lowerback -14.4359 -1.07288 3.16896
upperback -5.64059 -1.91814 2.56558
thorax 2.11859 -0.961461 0.588533
lowerneck -4.93558 -0.830711 -0.123364
upperneck 10.3521 -0.872107 -2.23311
head 4.27358 -0.542726 -0.773082
rclavicle -3.62782e-015 3.97569e-015
rhumerus -67.1906 -41.5285 -31.9691
rradius 12.7512
rwrist 38.7543
rhand -13.8615 -33.6453
rfingers 7.12502
rthumb 12.2626 -63.2657
lclavicle -3.62782e-015 3.97569e-015
lhumerus -32.7139 -5.58572 88.7436
lradius 47.3947
lwrist 10.9844
lhand -25.2844 -18.8658
lfingers 7.12502
lthumb 1.23694 11.1103
rfemur -43.1642 -3.18555 27.8852
rtibia 36.6511
rfoot -11.6631 5.31524
rtoes -8.02841
lfemur -16.0762 -0.608081 -18.1412
ltibia 60.0316
lfoot 19.0064 -15.709
ltoes -28.1577
239
root -0.441968 16.2788 3.93333 16.1547 5.05188 -1.82447
lowerback -14.4588 -1.00537 3.44544
upperback -5.61142 -1.87216 2.68147
thorax 2.156 -0.939444 0.560836
lowerneck -5.15293 -0.854585 -0.0718609
upperneck 10.5249 -0.896628 -2.30218
head 4.37929 -0.558296 -0.810809
rclavicle 2.03754e-014 -3.73715e-014
rhumerus -64.2731 -41.1452 -35.5936
rradius 12.9951
rwrist 36.0608
rhand -14.4691 -32.7552
rfingers 7.12502
rthumb 11.6767 -62.4098
lclavicle 2.03754e-014 -3.73715e-014
lhumerus -32.7046 -5.56097 89.0509
lradius 45.9086
lwrist 10.5977
lhand -25.24 -19.5123
lfingers 7.12502
lthumb 1.2798 10.4636
rfemur -42.4208 -3.34262 28.3711
rtibia 36.5585
rfoot -12.5886 5.28643
rtoes -9.56199
lfemur -17.9669 -0.472842 -17.608
ltibia 62.4897
lfoot 18.3703 -15.4037
ltoes -27.6776
240
root -0.442266 16.3008 4.11201 16.2773 5.4275 -2.3012
lowerback -14.4913 -0.944753 4.01089
upperback -5.70699 -1.86764 2.77741
thorax 2.05534 -0.943746 0.345474
lowerneck -4.8723 -0.909007 0.0535791
upperneck 10.4822 -0.974926 -2.38922
head 4.30544 -0.594311 -0.863305
rclavicle 9.25591e-015 -3.18055e-015
rhumerus -60.3549 -39.4103 -41.267
rradius 13.621
rwrist 31.295
rhand -15.0172 -33.5714
rfingers 7.12502
rthumb 11.1482 -63.2553
lclavicle 9.25591e-015 -3.18055e-015
lhumerus -32.9652 -5.59142 89.3078
lradius 44.3397
lwrist 9.9592
lhand -24.8085 -20.8871
lfingers 7.12502
lthumb 1.69656 9.08591
rfemur -41.7691 -3.83531 29.1243
rtibia 36.4285
rfoot -13.2459 4.9296
rtoes -11.8984
lfemur -20.0665 -0.521617 -16.901
ltibia 64.8256
lfoot 16.3777 -14.986
ltoes -25.3071
241
root -0.443511 16.327 4.29826 16.4129 5.5961 -2.53041
lowerback -14.6112 -0.879224 4.21955
upperback -5.78932 -1.81432 2.85416
thorax 2.0287 -0.919416 0.316032
lowerneck -4.45279 -0.972322 0.122322
upperneck 10.2244 -1.06564 -2.46553
head 4.1267 -0.636056 -0.898141
rclavicle -5.36719e-015 4.53229e-014
rhumerus -56.615 -36.9404 -46.9806
rradius 14.7303
rwrist 26.2048
rhand -14.9581 -34.6287
rfingers 7.12502
rthumb 11.2052 -64.3095
lclavicle -5.36719e-015 4.53229e-014
lhumerus -33.3746 -5.62435 89.5785
lradius 42.8918
lwrist 9.1771
lhand -24.3101 -21.5671
lfingers 7.12502
lthumb 2.1779 8.4015
rfemur -41.1125 -4.23505 29.5749
rtibia 36.2925
rfoot -13.8951 4.7664
rtoes -12.4497
lfemur -22.1291 -0.456401 -16.543
ltibia 66.9243
lfoot 14.7501 -14.1795
ltoes -22.6224
242
root -0.447042 16.3448 4.48259 16.5591 5.42168 -2.51393
lowerback -14.6404 -0.781854 4.05875
upperback -5.92528 -1.66027 2.89051
thorax 1.91104 -0.84337 0.469828
lowerneck -4.00965 -1.02976 0.00401185
upperneck 10.1223 -1.14195 -2.42755
head 4.00152 -0.673462 -0.862012
rclavicle -3.52843e-015 3.18055e-015
rhumerus -53.9864 -34.887 -50.9487
rradius 15.7965
rwrist 22.541
rhand -14.6347 -34.9132
rfingers 7.12502
rthumb 11.517 -64.5767
lclavicle -3.52843e-015 3.18055e-015
lhumerus -33.7361 -5.51834 89.8591
lradius 41.2392
lwrist 8.11596
lhand -24.3744 -21.5924
lfingers 7.12502
lthumb 2.11581 8.3769
rfemur -40.4738 -4.33947 29.6503
rtibia 36.1654
rfoot -14.5535 4.81448
rtoes -12.6221
lfemur -24.0512 -0.161477 -16.5659
ltibia 68.778
lfoot 12.5514 -13.6756
ltoes -22.9494
243
root -0.450839 16.3621 4.66123 16.6864 5.18721 -2.39112
lowerback -14.6573 -0.67724 3.80024
upperback -6.03127 -1.48295 2.8768
thorax 1.8193 -0.754011 0.629461
lowerneck -3.91168 -1.08552 -0.172817
upperneck 10.4061 -1.2064 -2.34908
head 4.08376 -0.709921 -0.809892
rclavicle 1.39149e-015 -6.36111e-015
rhumerus -51.9366 -33.6986 -53.6117
rradius 16.4912
rwrist 20.1853
rhand -14.6065 -35.1339
rfingers 7.12502
rthumb 11.5443 -64.796
lclavicle 1.39149e-015 -6.36111e-015
lhumerus -34.0104 -5.30115 90.1085
lradius 39.417
lwrist 6.78637
lhand -24.7496 -21.6689
lfingers 7.12502
lthumb 1.75337 8.30365
rfemur -39.8165 -4.32213 29.5407
rtibia 36.0614
rfoot -15.2254 4.82334
rtoes -12.4848
lfemur -25.821 0.10884 -16.744
ltibia 70.3936
lfoot 9.98315 -13.1752
ltoes -21.4601
244
root -0.453271 16.3859 4.85006 16.799 4.93235 -2.32989
lowerback -14.8684 -0.560872 3.63254
upperback -5.9648 -1.32184 2.86047
thorax 2.00853 -0.668847 0.728754
lowerneck -4.28829 -1.07521 -0.26617
upperneck 10.76 -1.18583 -2.2424
head 4.28747 -0.702758 -0.764894
rclavicle 1.26974e-014 7.95139e-016
rhumerus -49.5214 -32.1134 -56.8288
rradius 17.3549
rwrist 17.1197
rhand -14.9819 -34.9664
rfingers 7.12502
rthumb 11.1822 -64.6484
lclavicle 1.26974e-014 7.95139e-016
lhumerus -34.1221 -5.00634 90.2652
lradius 37.7305
lwrist 5.44444
lhand -24.5573 -21.9086
lfingers 7.12502
lthumb 1.93908 8.06229
rfemur -39.0481 -4.26047 29.4592
rtibia 35.9099
rfoot -15.9743 4.89439
rtoes -11.9963
lfemur -27.535 0.373621 -16.8743
ltibia 71.7753
lfoot 8.15387 -12.3466
ltoes -20.7401
245
root -0.450725 16.41 5.04111 16.788 4.83507 -2.45362
lowerback -15.0131 -0.501526 3.76711
upperback -5.91143 -1.27348 2.86681
thorax 2.13904 -0.644203 0.665523
lowerneck -4.39971 -1.05353 -0.281799
upperneck 11.0407 -1.16011 -2.14208
head 4.41241 -0.688233 -0.731474
rclavicle -3.8763e-015 0
rhumerus -47.2203 -29.78 -60.3588
rradius 18.5856
rwrist 13.5008
rhand -15.2877 -34.7452
rfingers 7.12502
rthumb 10.8873 -64.4429
lclavicle -3.8763e-015 0
lhumerus -34.3585 -4.66023 90.3177
lradius 36.0398
lwrist 4.38805
lhand -23.9316 -22.0057
lfingers 7.12502
lthumb 2.54345 7.95883
rfemur -38.1192 -4.34192 29.5791
rtibia 35.7173
rfoot -16.7407 4.96466
rtoes -11.93
lfemur -29.1333 0.498236 -16.8007
ltibia 72.9342
lfoot 7.0354 -11.3453
ltoes -17.9543
246
root -0.440143 16.4323 5.22573 16.6206 5.08391 -2.73805
lowerback -15.0194 -0.519347 4.20135
upperback -5.84533 -1.36306 2.93389
thorax 2.20014 -0.691272 0.476621
lowerneck -4.19918 -1.06138 -0.319061
upperneck 11.0562 -1.16948 -2.13976
head 4.3777 -0.693456 -0.722635
rclavicle 1.39149e-014 -1.82882e-014
rhumerus -45.2882 -27.8557 -63.0691
rradius 19.6866
rwrist 10.7703
rhand -15.6772 -34.3843
rfingers 7.12502
rthumb 10.5115 -64.1015
lclavicle 1.39149e-014 -1.82882e-014
lhumerus -34.5633 -4.21746 90.3933
lradius 34.1164
lwrist 3.48063
lhand -23.7585 -22.415
lfingers 7.12502
lthumb 2.71062 7.54756
rfemur -37.0358 -4.74774 29.9136
rtibia 35.4696
rfoot -17.4845 5.10801
rtoes -10.8908
lfemur -30.5459 0.345495 -16.507
ltibia 73.8713
lfoot 8.915 -10.8947
ltoes 0.148424
